<svg xmlns="http://www.w3.org/2000/svg" viewBox="0 0 1024 1024" width="256" height="256">
  <defs>
    <linearGradient id="bg" x1="20" y1="20" x2="21" y2="21">
      <stop offset="0%" stop-color="#2A2A2A"/>
      <stop offset="100%" stop-color="#1E1E1E"/>
    </linearGradient>
    <linearGradient id="border" x1="0" y1="0" x2="1" y2="1">
      <stop offset="0%" stop-color="#FF6B9D"/>
      <stop offset="35%" stop-color="#C084FC"/>
      <stop offset="65%" stop-color="#60A5FA"/>
      <stop offset="100%" stop-color="#38BDF8"/>
    </linearGradient>
  </defs>
  <g transform="translate(62, 62) scale(1.7574)">
    <path d="M 481.40 256.00 L 481.39 300.64 L 481.34 314.90 L 481.28 325.26 L 481.18 333.69 L 481.06 340.93 L 480.90 347.34 L 480.73 353.12 L 480.52 358.41 L 480.29 363.32 L 480.02 367.90 L 479.73 372.20 L 479.41 376.25 L 479.07 380.11 L 478.70 383.77 L 478.30 387.27 L 477.87 390.61 L 477.41 393.83 L 476.92 396.91 L 476.40 399.88 L 475.86 402.75 L 475.29 405.52 L 474.68 408.19 L 474.06 410.78 L 473.40 413.28 L 472.71 415.71 L 471.98 418.07 L 471.23 420.35 L 470.45 422.57 L 469.64 424.73 L 468.80 426.83 L 467.92 428.86 L 467.02 430.84 L 466.08 432.77 L 465.12 434.64 L 464.11 436.47 L 463.08 438.24 L 462.02 439.96 L 460.91 441.65 L 459.78 443.28 L 458.61 444.88 L 457.41 446.43 L 456.16 447.94 L 454.89 449.40 L 453.57 450.83 L 452.22 452.22 L 450.83 453.57 L 449.40 454.89 L 447.94 456.16 L 446.43 457.41 L 444.88 458.61 L 443.28 459.78 L 441.65 460.91 L 439.96 462.02 L 438.24 463.08 L 436.47 464.11 L 434.64 465.12 L 432.77 466.08 L 430.84 467.02 L 428.86 467.92 L 426.83 468.80 L 424.73 469.64 L 422.57 470.45 L 420.35 471.23 L 418.07 471.98 L 415.71 472.71 L 413.28 473.40 L 410.78 474.06 L 408.19 474.68 L 405.52 475.29 L 402.75 475.86 L 399.88 476.40 L 396.91 476.92 L 393.83 477.41 L 390.61 477.87 L 387.27 478.30 L 383.77 478.70 L 380.11 479.07 L 376.25 479.41 L 372.20 479.73 L 367.90 480.02 L 363.32 480.29 L 358.41 480.52 L 353.12 480.73 L 347.34 480.90 L 340.93 481.06 L 333.69 481.18 L 325.26 481.28 L 314.90 481.34 L 300.64 481.39 L 256.02 481.40 L 211.36 481.39 L 197.10 481.34 L 186.74 481.28 L 178.31 481.18 L 171.07 481.06 L 164.66 480.90 L 158.88 480.73 L 153.59 480.52 L 148.68 480.29 L 144.10 480.02 L 139.80 479.73 L 135.75 479.41 L 131.89 479.07 L 128.23 478.70 L 124.73 478.30 L 121.39 477.87 L 118.17 477.41 L 115.09 476.92 L 112.12 476.40 L 109.25 475.86 L 106.48 475.29 L 103.81 474.68 L 101.22 474.06 L 98.72 473.40 L 96.29 472.71 L 93.93 471.98 L 91.65 471.23 L 89.43 470.45 L 87.27 469.64 L 85.17 468.80 L 83.14 467.92 L 81.16 467.02 L 79.23 466.08 L 77.36 465.12 L 75.53 464.11 L 73.76 463.08 L 72.04 462.02 L 70.35 460.91 L 68.72 459.78 L 67.12 458.61 L 65.57 457.41 L 64.06 456.16 L 62.60 454.89 L 61.17 453.57 L 59.78 452.22 L 58.43 450.83 L 57.11 449.40 L 55.84 447.94 L 54.59 446.43 L 53.39 444.88 L 52.22 443.28 L 51.09 441.65 L 49.98 439.96 L 48.92 438.24 L 47.89 436.47 L 46.88 434.64 L 45.92 432.77 L 44.98 430.84 L 44.08 428.86 L 43.20 426.83 L 42.36 424.73 L 41.55 422.57 L 40.77 420.35 L 40.02 418.07 L 39.29 415.71 L 38.60 413.28 L 37.94 410.78 L 37.32 408.19 L 36.71 405.52 L 36.14 402.75 L 35.60 399.88 L 35.08 396.91 L 34.59 393.83 L 34.13 390.61 L 33.70 387.27 L 33.30 383.77 L 32.93 380.11 L 32.59 376.25 L 32.27 372.20 L 31.98 367.90 L 31.71 363.32 L 31.48 358.41 L 31.27 353.12 L 31.10 347.34 L 30.94 340.93 L 30.82 333.69 L 30.72 325.26 L 30.66 314.90 L 30.61 300.64 L 30.60 256.02 L 30.61 211.36 L 30.66 197.10 L 30.72 186.74 L 30.82 178.31 L 30.94 171.07 L 31.10 164.66 L 31.27 158.88 L 31.48 153.59 L 31.71 148.68 L 31.98 144.10 L 32.27 139.80 L 32.59 135.75 L 32.93 131.89 L 33.30 128.23 L 33.70 124.73 L 34.13 121.39 L 34.59 118.17 L 35.08 115.09 L 35.60 112.12 L 36.14 109.25 L 36.71 106.48 L 37.32 103.81 L 37.94 101.22 L 38.60 98.72 L 39.29 96.29 L 40.02 93.93 L 40.77 91.65 L 41.55 89.43 L 42.36 87.27 L 43.20 85.17 L 44.08 83.14 L 44.98 81.16 L 45.92 79.23 L 46.88 77.36 L 47.89 75.53 L 48.92 73.76 L 49.98 72.04 L 51.09 70.35 L 52.22 68.72 L 53.39 67.12 L 54.59 65.57 L 55.84 64.06 L 57.11 62.60 L 58.43 61.17 L 59.78 59.78 L 61.17 58.43 L 62.60 57.11 L 64.06 55.84 L 65.57 54.59 L 67.12 53.39 L 68.72 52.22 L 70.35 51.09 L 72.04 49.98 L 73.76 48.92 L 75.53 47.89 L 77.36 46.88 L 79.23 45.92 L 81.16 44.98 L 83.14 44.08 L 85.17 43.20 L 87.27 42.36 L 89.43 41.55 L 91.65 40.77 L 93.93 40.02 L 96.29 39.29 L 98.72 38.60 L 101.22 37.94 L 103.81 37.32 L 106.48 36.71 L 109.25 36.14 L 112.12 35.60 L 115.09 35.08 L 118.17 34.59 L 121.39 34.13 L 124.73 33.70 L 128.23 33.30 L 131.89 32.93 L 135.75 32.59 L 139.80 32.27 L 144.10 31.98 L 148.68 31.71 L 153.59 31.48 L 158.88 31.27 L 164.66 31.10 L 171.07 30.94 L 178.31 30.82 L 186.74 30.72 L 197.10 30.66 L 211.36 30.61 L 255.98 30.60 L 300.64 30.61 L 314.90 30.66 L 325.26 30.72 L 333.69 30.82 L 340.93 30.94 L 347.34 31.10 L 353.12 31.27 L 358.41 31.48 L 363.32 31.71 L 367.90 31.98 L 372.20 32.27 L 376.25 32.59 L 380.11 32.93 L 383.77 33.30 L 387.27 33.70 L 390.61 34.13 L 393.83 34.59 L 396.91 35.08 L 399.88 35.60 L 402.75 36.14 L 405.52 36.71 L 408.19 37.32 L 410.78 37.94 L 413.28 38.60 L 415.71 39.29 L 418.07 40.02 L 420.35 40.77 L 422.57 41.55 L 424.73 42.36 L 426.83 43.20 L 428.86 44.08 L 430.84 44.98 L 432.77 45.92 L 434.64 46.88 L 436.47 47.89 L 438.24 48.92 L 439.96 49.98 L 441.65 51.09 L 443.28 52.22 L 444.88 53.39 L 446.43 54.59 L 447.94 55.84 L 449.40 57.11 L 450.83 58.43 L 452.22 59.78 L 453.57 61.17 L 454.89 62.60 L 456.16 64.06 L 457.41 65.57 L 458.61 67.12 L 459.78 68.72 L 460.91 70.35 L 462.02 72.04 L 463.08 73.76 L 464.11 75.53 L 465.12 77.36 L 466.08 79.23 L 467.02 81.16 L 467.92 83.14 L 468.80 85.17 L 469.64 87.27 L 470.45 89.43 L 471.23 91.65 L 471.98 93.93 L 472.71 96.29 L 473.40 98.72 L 474.06 101.22 L 474.68 103.81 L 475.29 106.48 L 475.86 109.25 L 476.40 112.12 L 476.92 115.09 L 477.41 118.17 L 477.87 121.39 L 478.30 124.73 L 478.70 128.23 L 479.07 131.89 L 479.41 135.75 L 479.73 139.80 L 480.02 144.10 L 480.29 148.68 L 480.52 153.59 L 480.73 158.88 L 480.90 164.66 L 481.06 171.07 L 481.18 178.31 L 481.28 186.74 L 481.34 197.10 L 481.39 211.36 Z" transform="translate(256 256) scale(1.04) translate(-256 -256)" fill="url(#border)"/>
    <path d="M 444.60 256.00 L 444.59 299.73 L 444.54 313.62 L 444.48 323.64 L 444.39 331.74 L 444.27 338.65 L 444.13 344.71 L 443.96 350.13 L 443.76 355.06 L 443.55 359.57 L 443.31 363.73 L 443.05 367.61 L 442.77 371.23 L 442.47 374.63 L 442.13 377.83 L 441.79 380.84 L 441.43 383.68 L 441.05 386.36 L 440.64 388.91 L 440.22 391.32 L 439.79 393.62 L 439.34 395.79 L 438.87 397.86 L 438.39 399.82 L 437.90 401.69 L 437.40 403.46 L 436.89 405.15 L 436.36 406.75 L 435.82 408.27 L 435.27 409.72 L 434.72 411.09 L 434.16 412.41 L 433.59 413.65 L 433.03 414.83 L 432.43 415.95 L 431.85 417.03 L 431.26 418.04 L 430.65 419.01 L 430.05 419.94 L 429.44 420.83 L 428.81 421.69 L 428.16 422.49 L 427.52 423.28 L 426.87 424.05 L 426.19 424.78 L 425.49 425.49 L 424.78 426.19 L 424.05 426.87 L 423.28 427.52 L 422.49 428.16 L 421.69 428.81 L 420.83 429.44 L 419.94 430.05 L 419.01 430.65 L 418.04 431.26 L 417.03 431.85 L 415.95 432.43 L 414.83 433.03 L 413.65 433.59 L 412.41 434.16 L 411.09 434.72 L 409.72 435.27 L 408.27 435.82 L 406.75 436.36 L 405.15 436.89 L 403.46 437.40 L 401.69 437.90 L 399.82 438.39 L 397.86 438.87 L 395.79 439.34 L 393.62 439.79 L 391.32 440.22 L 388.91 440.64 L 386.36 441.05 L 383.68 441.43 L 380.84 441.79 L 377.83 442.13 L 374.63 442.47 L 371.23 442.77 L 367.61 443.05 L 363.73 443.31 L 359.57 443.55 L 355.06 443.76 L 350.13 443.96 L 344.71 444.13 L 338.65 444.27 L 331.74 444.39 L 323.64 444.48 L 313.62 444.54 L 299.73 444.59 L 256.02 444.60 L 212.27 444.59 L 198.38 444.54 L 188.36 444.48 L 180.26 444.39 L 173.35 444.27 L 167.29 444.13 L 161.87 443.96 L 156.94 443.76 L 152.43 443.55 L 148.27 443.31 L 144.39 443.05 L 140.77 442.77 L 137.37 442.47 L 134.17 442.13 L 131.16 441.79 L 128.32 441.43 L 125.64 441.05 L 123.09 440.64 L 120.68 440.22 L 118.38 439.79 L 116.21 439.34 L 114.14 438.87 L 112.18 438.39 L 110.31 437.90 L 108.54 437.40 L 106.85 436.89 L 105.25 436.36 L 103.73 435.82 L 102.28 435.27 L 100.91 434.72 L 99.59 434.16 L 98.35 433.59 L 97.17 433.03 L 96.05 432.43 L 94.97 431.85 L 93.96 431.26 L 92.99 430.65 L 92.06 430.05 L 91.17 429.44 L 90.31 428.81 L 89.51 428.16 L 88.72 427.52 L 87.95 426.87 L 87.22 426.19 L 86.51 425.49 L 85.81 424.78 L 85.13 424.05 L 84.48 423.28 L 83.84 422.49 L 83.20 421.69 L 82.56 420.83 L 81.95 419.94 L 81.35 419.01 L 80.74 418.04 L 80.15 417.03 L 79.57 415.95 L 78.97 414.83 L 78.41 413.65 L 77.84 412.41 L 77.28 411.09 L 76.73 409.72 L 76.18 408.27 L 75.64 406.75 L 75.11 405.15 L 74.60 403.46 L 74.10 401.69 L 73.61 399.82 L 73.13 397.86 L 72.66 395.79 L 72.21 393.62 L 71.78 391.32 L 71.36 388.91 L 70.95 386.36 L 70.57 383.68 L 70.21 380.84 L 69.87 377.83 L 69.53 374.63 L 69.23 371.23 L 68.95 367.61 L 68.69 363.73 L 68.45 359.57 L 68.24 355.06 L 68.04 350.13 L 67.87 344.71 L 67.73 338.65 L 67.61 331.74 L 67.52 323.64 L 67.46 313.62 L 67.41 299.73 L 67.40 256.02 L 67.41 212.27 L 67.46 198.38 L 67.52 188.36 L 67.61 180.26 L 67.73 173.35 L 67.87 167.29 L 68.04 161.87 L 68.24 156.94 L 68.45 152.43 L 68.69 148.27 L 68.95 144.39 L 69.23 140.77 L 69.53 137.37 L 69.87 134.17 L 70.21 131.16 L 70.57 128.32 L 70.95 125.64 L 71.36 123.09 L 71.78 120.68 L 72.21 118.38 L 72.66 116.21 L 73.13 114.14 L 73.61 112.18 L 74.10 110.31 L 74.60 108.54 L 75.11 106.85 L 75.64 105.25 L 76.18 103.73 L 76.73 102.28 L 77.28 100.91 L 77.84 99.59 L 78.41 98.35 L 78.97 97.17 L 79.57 96.05 L 80.15 94.97 L 80.74 93.96 L 81.35 92.99 L 81.95 92.06 L 82.56 91.17 L 83.20 90.31 L 83.84 89.51 L 84.48 88.72 L 85.13 87.95 L 85.81 87.22 L 86.51 86.51 L 87.22 85.81 L 87.95 85.13 L 88.72 84.48 L 89.51 83.84 L 90.31 83.20 L 91.17 82.56 L 92.06 81.95 L 92.99 81.35 L 93.96 80.74 L 94.97 80.15 L 96.05 79.57 L 97.17 78.97 L 98.35 78.41 L 99.59 77.84 L 100.91 77.28 L 102.28 76.73 L 103.73 76.18 L 105.25 75.64 L 106.85 75.11 L 108.54 74.60 L 110.31 74.10 L 112.18 73.61 L 114.14 73.13 L 116.21 72.66 L 118.38 72.21 L 120.68 71.78 L 123.09 71.36 L 125.64 70.95 L 128.32 70.57 L 131.16 70.21 L 134.17 69.87 L 137.37 69.53 L 140.77 69.23 L 144.39 68.95 L 148.27 68.69 L 152.43 68.45 L 156.94 68.24 L 161.87 68.04 L 167.29 67.87 L 173.35 67.73 L 180.26 67.61 L 188.36 67.52 L 198.38 67.46 L 212.27 67.41 L 255.98 67.40 L 299.73 67.41 L 313.62 67.46 L 323.64 67.52 L 331.74 67.61 L 338.65 67.73 L 344.71 67.87 L 350.13 68.04 L 355.06 68.24 L 359.57 68.45 L 363.73 68.69 L 367.61 68.95 L 371.23 69.23 L 374.63 69.53 L 377.83 69.87 L 380.84 70.21 L 383.68 70.57 L 386.36 70.95 L 388.91 71.36 L 391.32 71.78 L 393.62 72.21 L 395.79 72.66 L 397.86 73.13 L 399.82 73.61 L 401.69 74.10 L 403.46 74.60 L 405.15 75.11 L 406.75 75.64 L 408.27 76.18 L 409.72 76.73 L 411.09 77.28 L 412.41 77.84 L 413.65 78.41 L 414.83 78.97 L 415.95 79.57 L 417.03 80.15 L 418.04 80.74 L 419.01 81.35 L 419.94 81.95 L 420.83 82.56 L 421.69 83.20 L 422.49 83.84 L 423.28 84.48 L 424.05 85.13 L 424.78 85.81 L 425.49 86.51 L 426.19 87.22 L 426.87 87.95 L 427.52 88.72 L 428.16 89.51 L 428.81 90.31 L 429.44 91.17 L 430.05 92.06 L 430.65 92.99 L 431.26 93.96 L 431.85 94.97 L 432.43 96.05 L 433.03 97.17 L 433.59 98.35 L 434.16 99.59 L 434.72 100.91 L 435.27 102.28 L 435.82 103.73 L 436.36 105.25 L 436.89 106.85 L 437.40 108.54 L 437.90 110.31 L 438.39 112.18 L 438.87 114.14 L 439.34 116.21 L 439.79 118.38 L 440.22 120.68 L 440.64 123.09 L 441.05 125.64 L 441.43 128.32 L 441.79 131.16 L 442.13 134.17 L 442.47 137.37 L 442.77 140.77 L 443.05 144.39 L 443.31 148.27 L 443.55 152.43 L 443.76 156.94 L 443.96 161.87 L 444.13 167.29 L 444.27 173.35 L 444.39 180.26 L 444.48 188.36 L 444.54 198.38 L 444.59 212.27 Z" transform="translate(256 256) scale(1.01) translate(-256 -256)" fill="url(#bg)"/>
    <g transform="translate(256 256) scale(0.85) translate(-256 -256)">
      <polyline points="112,117 168,175 112,233" fill="none" stroke="#FFFFFF" stroke-width="32" stroke-linecap="round" stroke-linejoin="round"/>
      <line x1="200" y1="231" x2="278" y2="231" stroke="#FFFFFF" stroke-width="32" stroke-linecap="round"/>
    </g>
  </g>
</svg>
